<svg width="24" height="24" viewBox="0 0 24 24" fill="none" xmlns="http://www.w3.org/2000/svg">
<path fill-rule="evenodd" clip-rule="evenodd" d="M20.1695 2.46102L2.57227 8.32677C2.00302 8.51652 1.60177 9.02727 1.55152 9.62577C1.50202 10.2243 1.81403 10.7943 2.34503 11.0755L9.60728 14.92L13.4525 22.183C13.733 22.7133 14.3038 23.0253 14.9015 22.9758C15.5 22.9263 16.0115 22.525 16.2013 21.955C17.5213 17.9958 20.8318 8.06352 22.067 4.35852C22.2463 3.81927 22.106 3.22527 21.7048 2.82327C21.3028 2.42127 20.7088 2.28102 20.1695 2.46102ZM11.0848 14.5038L14.7778 21.481L20.6435 3.88377L3.04702 9.74952L10.0235 13.4433L13.3445 10.1223C13.637 9.82976 14.1125 9.82976 14.405 10.1223C14.6975 10.4155 14.6975 10.8903 14.405 11.1835L11.0848 14.5038Z" fill="white"/>
</svg>
